<?xml version="1.0" standalone="no"?>
<!DOCTYPE svg PUBLIC "-//W3C//DTD SVG 20010904//EN"
 "http://www.w3.org/TR/2001/REC-SVG-20010904/DTD/svg10.dtd">
<svg version="1.0" xmlns="http://www.w3.org/2000/svg"
 width="637.000000pt" height="637.000000pt" viewBox="0 0 637.000000 637.000000"
 preserveAspectRatio="xMidYMid meet">
<metadata>
Created by potrace 1.11, written by Peter Selinger 2001-2013
</metadata>
<g transform="translate(0.000000,637.000000) scale(0.100000,-0.100000)"
fill="#000000" stroke="none">
<path d="M2763 6279 c4 -12 -3 -16 -31 -17 -21 -1 -46 -2 -57 -2 -11 -1 -43
-8 -71 -16 -28 -8 -55 -14 -60 -13 -5 2 -29 -7 -54 -18 -25 -12 -70 -32 -100
-46 -64 -28 -174 -132 -205 -193 -11 -21 -31 -51 -44 -66 -14 -16 -21 -28 -17
-28 4 0 -2 -13 -13 -29 -12 -16 -21 -34 -21 -39 0 -6 -7 -17 -15 -26 -8 -8
-24 -36 -35 -61 -13 -30 -24 -44 -31 -39 -8 4 -9 3 -5 -4 8 -13 -11 -55 -22
-48 -5 3 -14 0 -22 -5 -13 -8 -13 -9 0 -7 9 2 17 1 19 -2 5 -9 -22 -60 -30
-55 -4 3 -5 -3 -2 -14 3 -10 -2 -32 -11 -49 -8 -16 -17 -56 -20 -88 -3 -33
-10 -75 -16 -94 -14 -45 -14 -180 0 -250 7 -30 12 -61 13 -69 0 -8 15 -30 34
-48 18 -19 33 -39 33 -43 0 -5 22 -50 49 -99 27 -50 48 -91 46 -91 -5 0 47
-60 96 -109 25 -25 63 -55 83 -66 21 -11 40 -26 43 -32 3 -7 11 -13 19 -13 15
0 56 -78 48 -92 -3 -4 -2 -7 3 -6 9 3 63 -49 63 -61 0 -5 17 -26 38 -48 28
-29 43 -56 56 -107 20 -73 19 -74 -34 -102 -68 -37 -137 -92 -224 -180 -62
-63 -111 -148 -122 -212 -4 -22 -11 -25 -56 -27 -24 -2 -43 -4 -43 -5 0 -1
-11 -3 -25 -5 -34 -3 -134 -50 -151 -71 -21 -25 -57 -35 -133 -35 -65 0 -74
-3 -121 -37 -27 -20 -68 -54 -90 -74 -22 -21 -47 -38 -56 -38 -29 0 -67 -53
-136 -190 -25 -50 -40 -92 -37 -103 3 -10 1 -24 -5 -31 -6 -7 -10 -28 -9 -47
0 -19 -4 -59 -10 -89 -6 -30 -14 -73 -16 -95 -3 -22 -14 -69 -26 -105 -12 -36
-23 -87 -25 -115 -6 -86 -14 -134 -24 -153 -20 -38 -67 -227 -64 -262 8 -110
-4 -395 -18 -395 -1 0 -3 -9 -4 -20 -1 -11 -10 -58 -20 -105 -17 -85 -22 -171
-30 -454 -6 -198 -12 -285 -23 -321 -14 -45 -12 -148 3 -165 7 -8 12 -22 12
-30 -1 -52 117 -236 178 -278 26 -18 162 -69 205 -77 70 -13 110 -18 138 -17
40 2 41 -10 3 -44 -61 -54 -67 -89 -47 -274 l3 -25 1660 -3 c1575 -2 1661 -1
1665 15 3 10 6 50 7 88 2 79 8 105 23 105 5 0 48 18 94 41 55 27 94 53 113 78
27 35 141 262 141 282 0 6 10 33 21 60 24 56 29 86 17 111 -6 12 0 26 22 50
42 46 39 89 -13 145 -18 21 -19 24 -4 55 8 18 20 52 26 74 6 23 18 44 26 47
35 14 56 210 29 276 -8 20 -31 60 -51 89 -43 63 -47 118 -14 195 12 27 21 53
21 59 0 6 -25 34 -56 63 l-56 52 34 74 c57 122 69 154 73 185 3 34 -49 184
-70 200 -8 6 -16 24 -19 41 -5 28 -31 159 -42 213 -6 29 -6 24 2 170 6 104 5
118 -14 151 -12 22 -17 41 -11 50 5 9 -3 45 -20 95 -16 43 -48 135 -71 204
-59 169 -96 236 -156 282 -56 43 -169 92 -274 118 -88 23 -492 156 -535 177
-16 8 -69 19 -118 24 -102 10 -118 17 -150 63 -21 32 -113 140 -164 193 -12
13 -33 23 -46 23 -14 0 -30 7 -37 15 -7 8 -17 15 -22 15 -5 0 -24 11 -42 25
-30 22 -35 34 -45 100 -22 133 -22 134 8 193 31 61 39 90 46 164 4 40 13 56
50 94 24 26 50 63 56 83 6 20 15 41 20 46 11 14 19 58 25 135 10 118 10 164 2
215 -5 28 -9 64 -10 80 0 17 -10 50 -21 75 -11 25 -22 54 -24 65 -2 11 -6 27
-10 35 -3 8 -7 20 -9 25 -1 6 -7 24 -12 41 -7 23 -7 36 1 44 9 10 9 11 0 6
-12 -7 -18 16 -14 51 1 6 -4 15 -10 19 -8 5 -9 3 -4 -7 5 -8 4 -10 0 -6 -14
12 -15 37 -2 37 7 1 6 5 -3 13 -8 7 -15 21 -14 32 0 11 -5 30 -13 42 -7 12
-13 29 -13 38 0 8 -5 15 -11 15 -5 0 -8 4 -5 9 3 5 -1 14 -9 21 -8 7 -15 23
-15 37 0 13 -7 31 -15 40 -8 8 -13 19 -10 24 4 5 1 9 -5 9 -6 0 -8 5 -4 12 5
7 2 9 -9 5 -11 -4 -14 -2 -10 9 3 9 -4 24 -16 35 -11 11 -21 24 -21 29 0 6 -7
10 -15 10 -8 0 -15 5 -15 11 0 5 -4 7 -10 4 -6 -3 -7 1 -4 9 4 10 1 16 -9 16
-8 0 -17 5 -19 10 -2 6 -13 12 -25 12 -14 2 -19 7 -15 17 3 9 1 12 -6 7 -8 -4
-12 0 -12 11 0 15 -2 16 -10 3 -7 -12 -10 -12 -10 -1 0 8 -6 11 -16 7 -8 -3
-12 -2 -9 4 3 6 -1 10 -9 10 -8 0 -20 8 -25 18 -10 16 -10 16 -11 -1 0 -17 -1
-17 -17 -2 -9 10 -26 15 -39 12 -13 -2 -21 -1 -19 3 3 4 -6 10 -20 12 -18 4
-23 2 -16 -6 7 -8 4 -12 -9 -12 -10 0 -16 4 -13 9 3 5 -4 4 -17 -3 -12 -6 -28
-9 -35 -6 -8 3 -17 1 -20 -5 -4 -5 -11 -6 -17 -3 -6 4 -14 0 -19 -7 -6 -10 -9
-8 -9 9 0 12 -4 23 -10 23 -28 4 -61 20 -56 28 2 3 -9 7 -26 8 -21 0 -26 -2
-17 -8 11 -7 11 -9 -3 -9 -9 0 -22 8 -28 18 -9 13 -10 13 -7 1z m867 -975 c0
-8 4 -14 8 -14 4 0 9 -14 10 -32 3 -39 -7 -31 -25 20 -15 45 -16 55 -3 47 6
-3 10 -13 10 -21z"/>
</g>
</svg>
